<svg width="19" height="19" viewBox="0 0 12 12" fill="none" xmlns="http://www.w3.org/2000/svg">
<path d="M7.87548 8.74022C6.89482 9.5024 5.66067 9.86197 4.42433 9.74571C3.18799 9.62945 2.04242 9.0461 1.22088 8.11444C0.399339 7.18277 -0.0364012 5.97286 0.00238362 4.73104C0.0411685 3.48923 0.551562 2.30889 1.42964 1.43037C2.30772 0.551842 3.48745 0.0411894 4.72864 0.00238484C5.96982 -0.0364197 7.17912 0.399542 8.11031 1.2215C9.0415 2.04346 9.62455 3.18961 9.74076 4.42658C9.85696 5.66355 9.49757 6.89833 8.73577 7.87949L12 11.1332L11.1336 12L7.88158 8.74022H7.87548ZM4.88582 8.54487C5.36656 8.54487 5.8426 8.45014 6.28675 8.26607C6.7309 8.082 7.13447 7.81221 7.4744 7.4721C7.81434 7.13199 8.084 6.72822 8.26797 6.28384C8.45194 5.83947 8.54663 5.36319 8.54663 4.8822C8.54663 4.40121 8.45194 3.92493 8.26797 3.48055C8.084 3.03618 7.81434 2.63241 7.4744 2.29229C7.13447 1.95218 6.7309 1.68239 6.28675 1.49833C5.8426 1.31426 5.36656 1.21952 4.88582 1.21952C3.91491 1.21952 2.98377 1.60541 2.29723 2.29229C1.61069 2.97918 1.225 3.9108 1.225 4.8822C1.225 5.8536 1.61069 6.78522 2.29723 7.4721C2.98377 8.15899 3.91491 8.54487 4.88582 8.54487V8.54487Z" fill="white"/>
</svg>
